<?xml version="1.0" encoding="utf-8"?>
<!-- Generator: Adobe Illustrator 16.0.0, SVG Export Plug-In . SVG Version: 6.00 Build 0)  -->
<!DOCTYPE svg PUBLIC "-//W3C//DTD SVG 1.1//EN" "http://www.w3.org/Graphics/SVG/1.1/DTD/svg11.dtd">
<svg version="1.1" id="Ebene_2" xmlns="http://www.w3.org/2000/svg" xmlns:xlink="http://www.w3.org/1999/xlink" x="0px" y="0px"
	 width="230px" height="80px" viewBox="0 0 693.07 254" enable-background="new 0 0 693.07 254" xml:space="preserve">
<g>
	<path fill="#FFFFFF" d="M360.126,170.204h-1.955c-0.346-1.566-0.808-2.71-1.383-3.431s-1.22-1.164-1.934-1.331
		c-0.714-0.166-1.708-0.249-2.983-0.249h-5.032v9.959h2.641c1.248,0,2.094-0.215,2.537-0.645s0.707-1.379,0.79-2.849h1.913v9.377
		h-1.955c-0.068-1.081-0.197-1.856-0.385-2.328c-0.187-0.471-0.506-0.797-0.955-0.978c-0.451-0.18-1.127-0.271-2.027-0.271h-2.559
		v8.38c0,1.137,0.226,1.975,0.676,2.516c0.451,0.54,1.521,0.811,3.213,0.811h0.582v1.913h-14.471v-1.913
		c1.719,0,2.824-0.253,3.316-0.759s0.738-1.361,0.738-2.567v-17.715c0-0.804-0.084-1.432-0.25-1.882s-0.544-0.804-1.133-1.061
		c-0.59-0.256-1.48-0.385-2.672-0.385v-1.912h23.078L360.126,170.204z"/>
	<path fill="#FFFFFF" d="M392.374,164.798c-1.262,0-2.166,0.146-2.713,0.437c-0.549,0.291-0.885,0.707-1.01,1.248
		c-0.125,0.54-0.186,1.372-0.186,2.495v10.396c0,1.913-0.066,3.352-0.199,4.314c-0.131,0.964-0.48,1.938-1.049,2.921
		c-1.055,1.899-2.527,3.206-4.418,3.92c-1.893,0.714-3.713,1.07-5.459,1.07c-1.289,0-2.615-0.17-3.98-0.509
		c-1.367-0.34-2.639-0.897-3.816-1.674s-2.072-1.795-2.682-3.057c-0.332-0.693-0.59-1.39-0.77-2.09
		c-0.18-0.699-0.287-1.358-0.322-1.975c-0.035-0.617-0.053-1.425-0.053-2.423l-0.041-11.747c0-1.22-0.238-2.079-0.717-2.578
		s-1.598-0.749-3.358-0.749v-1.912h14.222v1.912c-1.205,0-2.107,0.122-2.703,0.364s-0.984,0.589-1.164,1.039
		c-0.18,0.451-0.27,1.092-0.27,1.924v11.747c0,1.206,0.059,2.264,0.176,3.171c0.117,0.908,0.301,1.702,0.551,2.381
		c0.471,1.123,1.271,2.021,2.402,2.692c1.129,0.673,2.373,1.009,3.732,1.009c1.455,0,2.809-0.357,4.064-1.071
		c1.254-0.714,2.123-1.639,2.609-2.775c0.387-0.887,0.641-1.806,0.758-2.755c0.119-0.949,0.178-2.083,0.178-3.399v-10.146
		c0-0.915-0.027-1.594-0.084-2.038c-0.055-0.443-0.207-0.835-0.457-1.175c-0.25-0.339-0.662-0.585-1.236-0.738
		c-0.576-0.152-1.369-0.229-2.381-0.229v-1.912h10.375V164.798z"/>
	<path fill="#FFFFFF" d="M424.746,164.798c-1.345,0-2.308,0.136-2.89,0.405c-0.582,0.271-0.942,0.669-1.081,1.196
		c-0.139,0.526-0.208,1.386-0.208,2.578v22.351h-1.913l-18.442-21.914v15.531c0,1.179,0.073,2.034,0.219,2.568
		c0.146,0.533,0.516,0.942,1.112,1.227c0.596,0.284,1.56,0.426,2.89,0.426v1.913h-10.479v-1.913c1.247,0,2.151-0.142,2.713-0.426
		s0.907-0.693,1.04-1.227c0.131-0.534,0.197-1.39,0.197-2.568v-14.388c0-1.164-0.031-2.038-0.094-2.62s-0.212-1.092-0.447-1.528
		s-0.62-0.79-1.153-1.061c-0.534-0.27-1.272-0.453-2.215-0.551v-1.912h8.213l16.052,18.962v-12.87c0-1.054-0.073-1.861-0.219-2.423
		c-0.146-0.561-0.506-0.994-1.081-1.299s-1.486-0.458-2.734-0.458v-1.912h10.521V164.798z"/>
	<path fill="#FFFFFF" d="M456.246,177.231c0,2.038-0.347,3.878-1.039,5.521c-0.693,1.643-1.588,3.012-2.683,4.106
		s-2.266,1.92-3.514,2.475c-2.634,1.164-5.856,1.746-9.668,1.746h-12.87v-1.913c1.191,0,2.093-0.114,2.703-0.343
		c0.609-0.229,1.008-0.572,1.195-1.029s0.28-1.108,0.28-1.954v-17.798c0-1.22-0.249-2.079-0.748-2.578s-1.643-0.749-3.431-0.749
		v-1.954l6.05-0.125c0.208,0,1.054-0.014,2.537-0.042c1.483-0.027,2.343-0.041,2.578-0.041c2.314,0,4.279,0.125,5.895,0.374
		c1.614,0.25,3.095,0.651,4.439,1.206c1.233,0.499,2.37,1.195,3.409,2.09c1.04,0.894,1.916,1.912,2.631,3.056
		c0.714,1.144,1.265,2.389,1.652,3.732C456.052,174.355,456.246,175.763,456.246,177.231z M449.51,177.107
		c0-2.925-0.558-5.375-1.674-7.351c-1.115-1.975-2.63-3.344-4.543-4.106c-0.831-0.332-1.715-0.544-2.65-0.634
		s-2.277-0.136-4.023-0.136v19.815c0,1.137,0.055,1.965,0.166,2.484s0.437,0.915,0.978,1.186c0.54,0.27,1.379,0.405,2.516,0.405
		c3.368,0,5.749-1.179,7.142-3.535C448.813,182.88,449.51,180.171,449.51,177.107z"/>
	<path fill="#FFFFFF" d="M473.357,191.079h-14.305v-1.913c1.192,0,2.093-0.114,2.703-0.343s1.009-0.572,1.195-1.029
		c0.188-0.457,0.281-1.108,0.281-1.954v-17.715c0-1.22-0.253-2.079-0.759-2.578c-0.507-0.499-1.646-0.749-3.421-0.749v-1.912h14.305
		v1.912c-1.191,0-2.093,0.118-2.702,0.354c-0.61,0.236-1.009,0.579-1.196,1.029c-0.187,0.451-0.28,1.099-0.28,1.944v17.715
		c0,0.804,0.09,1.435,0.271,1.892c0.18,0.458,0.564,0.812,1.153,1.061c0.59,0.249,1.508,0.374,2.755,0.374V191.079z"/>
	<path fill="#FFFFFF" d="M505.896,164.798c-1.345,0-2.308,0.136-2.89,0.405c-0.582,0.271-0.942,0.669-1.081,1.196
		c-0.139,0.526-0.208,1.386-0.208,2.578v22.351h-1.913l-18.442-21.914v15.531c0,1.179,0.073,2.034,0.219,2.568
		c0.146,0.533,0.516,0.942,1.112,1.227c0.596,0.284,1.56,0.426,2.89,0.426v1.913h-10.479v-1.913c1.247,0,2.151-0.142,2.713-0.426
		s0.907-0.693,1.04-1.227c0.131-0.534,0.197-1.39,0.197-2.568v-14.388c0-1.164-0.031-2.038-0.094-2.62s-0.212-1.092-0.447-1.528
		s-0.62-0.79-1.153-1.061c-0.534-0.27-1.272-0.453-2.215-0.551v-1.912h8.213l16.052,18.962v-12.87c0-1.054-0.073-1.861-0.219-2.423
		c-0.146-0.561-0.506-0.994-1.081-1.299s-1.486-0.458-2.734-0.458v-1.912h10.521V164.798z"/>
	<path fill="#FFFFFF" d="M539.227,179.955c-0.804,0.084-1.41,0.212-1.819,0.385c-0.409,0.174-0.689,0.472-0.842,0.895
		c-0.153,0.423-0.229,1.078-0.229,1.965v6.611c-2.011,0-4.187,0.264-6.529,0.79c-1.691,0.375-2.959,0.635-3.805,0.78
		s-1.844,0.218-2.994,0.218c-3.05,0-5.662-0.714-7.839-2.142c-2.176-1.427-3.808-3.264-4.896-5.51
		c-1.088-2.245-1.632-4.553-1.632-6.924c0-2.716,0.645-5.194,1.934-7.433s3.036-3.999,5.239-5.281
		c2.204-1.282,4.616-1.923,7.236-1.923c3.188,0,6.092,1.102,8.712,3.306c0.318-0.596,0.574-1.414,0.769-2.454h2.018l0.207,9.232
		h-1.912c-0.291-1.4-0.839-2.683-1.643-3.847c-0.805-1.164-1.806-2.086-3.005-2.766c-1.199-0.679-2.52-1.019-3.961-1.019
		c-1.054,0-2.086,0.184-3.098,0.551s-1.958,1.005-2.838,1.913c-0.881,0.908-1.588,2.145-2.121,3.711
		c-0.534,1.566-0.801,3.5-0.801,5.801c0,1.969,0.208,3.861,0.624,5.677s1.262,3.375,2.537,4.678
		c1.274,1.304,3.077,1.955,5.405,1.955c1.83,0,3.216-0.288,4.158-0.863s1.557-1.278,1.841-2.11c0.283-0.832,0.426-1.76,0.426-2.786
		c0-0.97-0.072-1.677-0.218-2.121c-0.146-0.443-0.485-0.769-1.02-0.977c-0.533-0.208-1.354-0.312-2.464-0.312v-1.912h12.559V179.955
		z"/>
</g>
<g>
	<path fill="#FFFFFF" d="M240.964,76.546c-1.875,0-3.547,0.189-5.015,0.569c-1.47,0.38-2.786,1.039-3.951,1.976
		c-1.165,0.938-2.203,2.241-3.115,3.913c-0.911,1.672-1.747,3.799-2.507,6.382h-0.988V75.481h47.639v13.904h-0.986
		c-0.761-2.583-1.596-4.71-2.508-6.382s-1.951-2.976-3.115-3.913c-1.166-0.937-2.482-1.596-3.951-1.976
		c-1.47-0.38-3.141-0.569-5.015-0.569h-2.735v51.97h6.99v1.063h-24.997v-1.063h6.99v-51.97H240.964z"/>
	<path fill="#FFFFFF" d="M293.085,96.984v31.531h5.09v1.063h-19.45v-1.063h5.091V98.048h-5.091v-1.063H293.085z M284.651,76.85
		c1.063-1.063,2.328-1.596,3.799-1.596c1.469,0,2.734,0.532,3.799,1.596c1.063,1.063,1.596,2.33,1.596,3.799
		c0,1.47-0.532,2.735-1.596,3.799c-1.064,1.063-2.33,1.596-3.799,1.596c-1.471,0-2.735-0.532-3.799-1.596
		c-1.064-1.063-1.596-2.329-1.596-3.799C283.056,79.18,283.587,77.913,284.651,76.85z"/>
	<path fill="#FFFFFF" d="M317.245,96.984v5.395h0.152c0.304-0.506,0.709-1.103,1.215-1.786s1.178-1.342,2.014-1.976
		c0.836-0.633,1.849-1.178,3.039-1.633c1.189-0.456,2.621-0.685,4.293-0.685c1.773,0,3.254,0.19,4.445,0.57
		c1.189,0.38,2.178,0.861,2.963,1.443c0.785,0.583,1.418,1.229,1.899,1.938c0.481,0.71,0.924,1.419,1.329,2.128
		c0.76-1.368,1.607-2.443,2.546-3.229c0.937-0.785,1.887-1.393,2.849-1.823c0.963-0.43,1.874-0.709,2.736-0.836
		c0.86-0.126,1.568-0.19,2.127-0.19c2.887,0,5.115,0.432,6.686,1.292c1.57,0.862,2.71,1.888,3.42,3.077
		c0.709,1.19,1.127,2.444,1.254,3.761c0.125,1.318,0.189,2.432,0.189,3.344v20.742h5.015v1.063h-18.767v-1.063h4.482v-23.554
		c0-2.128-0.393-3.761-1.178-4.9s-2.09-1.71-3.912-1.71c-0.559,0-1.242,0.152-2.053,0.456s-1.595,0.76-2.354,1.367
		c-0.761,0.608-1.405,1.406-1.938,2.394c-0.532,0.988-0.798,2.165-0.798,3.533v22.414h4.482v1.063h-18.311v-1.063h4.559v-24.162
		c0-2.228-0.482-3.785-1.443-4.672c-0.963-0.886-2.027-1.33-3.191-1.33c-2.026,0-3.799,0.887-5.318,2.659
		c-0.406,0.507-0.76,1.025-1.064,1.558c-0.303,0.532-0.545,1.14-0.721,1.823c-0.179,0.685-0.305,1.47-0.381,2.355
		c-0.076,0.887-0.113,1.964-0.113,3.229v18.539h4.482v1.063h-18.768v-1.063h5.016V98.048h-5.016v-1.063H317.245z"/>
	<path fill="#FFFFFF" d="M380.383,113.928c0,1.823,0.076,3.66,0.229,5.508c0.152,1.85,0.557,3.521,1.216,5.015
		c0.657,1.495,1.62,2.724,2.887,3.686c1.266,0.963,3.039,1.443,5.318,1.443c2.025,0,3.735-0.38,5.129-1.14
		c1.393-0.76,2.532-1.634,3.419-2.621c0.886-0.988,1.545-1.963,1.976-2.926c0.43-0.961,0.671-1.671,0.722-2.127l1.064,0.38
		c-0.255,0.963-0.685,1.988-1.292,3.077c-0.608,1.09-1.443,2.103-2.508,3.039c-1.063,0.938-2.381,1.723-3.95,2.355
		c-1.571,0.633-3.471,0.949-5.699,0.949c-2.634,0-5.09-0.393-7.369-1.178c-2.28-0.784-4.269-1.924-5.965-3.419
		c-1.697-1.493-3.027-3.316-3.989-5.47c-0.963-2.152-1.443-4.598-1.443-7.332c0-2.178,0.456-4.305,1.368-6.383
		c0.911-2.076,2.165-3.913,3.761-5.509c1.596-1.595,3.469-2.887,5.622-3.875c2.152-0.987,4.47-1.481,6.952-1.481
		c1.772,0,3.545,0.279,5.318,0.836c1.772,0.559,3.368,1.419,4.787,2.583c1.417,1.166,2.583,2.673,3.495,4.521
		c0.912,1.85,1.367,4.064,1.367,6.647h-22.414V113.928z M392.54,104.354c0-0.557-0.026-1.24-0.076-2.051
		c-0.051-0.81-0.228-1.621-0.531-2.432c-0.305-0.81-0.798-1.493-1.482-2.052c-0.684-0.557-1.633-0.835-2.849-0.835
		c-1.723,0-3.053,0.405-3.989,1.215c-0.938,0.812-1.634,1.837-2.089,3.077c-0.456,1.242-0.748,2.584-0.874,4.027
		c-0.127,1.443-0.216,2.824-0.267,4.141h12.157V104.354z"/>
	<path fill="#FFFFFF" d="M450.132,111.838c0.76-2.507,1.14-5.686,1.14-9.535c0-2.128-0.165-3.837-0.494-5.129
		c-0.33-1.292-0.823-2.291-1.481-3.001c-0.658-0.709-1.481-1.189-2.469-1.443c-0.988-0.253-2.141-0.38-3.457-0.38v-1.064h15.348
		v1.064c-1.166,0.202-2.128,0.418-2.888,0.646s-1.381,0.659-1.861,1.292c-0.481,0.634-0.836,1.545-1.063,2.734
		c-0.229,1.191-0.393,2.876-0.494,5.053c-0.051,1.015-0.14,2.217-0.266,3.609c-0.127,1.394-0.33,2.837-0.608,4.331
		s-0.658,2.963-1.14,4.406c-0.481,1.444-1.102,2.749-1.861,3.913l3.495,6.154c0.202,0.355,0.557,0.812,1.063,1.368
		c0.506,0.558,1.216,0.835,2.128,0.835c0.76,0,1.367-0.252,1.823-0.76c0.456-0.505,0.823-1.088,1.102-1.747
		c0.278-0.657,0.456-1.292,0.532-1.899s0.114-1.013,0.114-1.216c0-0.253-0.014-0.48-0.038-0.684c-0.026-0.202-0.089-0.43-0.19-0.684
		h1.063c0.05,0.102,0.102,0.266,0.152,0.493c0.05,0.229,0.076,0.47,0.076,0.722c0,0.203-0.051,0.824-0.152,1.862
		s-0.469,2.14-1.102,3.305c-0.634,1.166-1.622,2.217-2.963,3.153c-1.343,0.937-3.229,1.405-5.661,1.405
		c-2.229,0-3.95-0.443-5.166-1.329s-2.279-1.938-3.191-3.153c-0.76,0.607-1.508,1.178-2.241,1.709
		c-0.735,0.532-1.57,1.001-2.508,1.406c-0.938,0.404-2.013,0.733-3.229,0.987c-1.216,0.253-2.635,0.38-4.255,0.38
		c-3.851,0-6.965-0.621-9.346-1.861s-4.243-2.735-5.584-4.482c-1.343-1.748-2.255-3.559-2.735-5.433
		c-0.482-1.874-0.722-3.469-0.722-4.787c0-2.329,0.468-4.419,1.405-6.269c0.937-1.848,2.127-3.52,3.571-5.015
		c1.443-1.493,3.025-2.836,4.748-4.026c1.722-1.189,3.394-2.291,5.015-3.305c-0.811-2.128-1.418-3.838-1.823-5.129
		c-0.406-1.292-0.607-2.596-0.607-3.913c0-1.569,0.315-3.077,0.949-4.521c0.633-1.444,1.481-2.735,2.546-3.875
		c1.063-1.14,2.279-2.052,3.646-2.735c1.368-0.684,2.761-1.025,4.179-1.025c0.962,0,1.874,0.14,2.735,0.417
		c0.861,0.279,1.621,0.723,2.279,1.33s1.178,1.405,1.558,2.394c0.38,0.987,0.57,2.191,0.57,3.608c0,1.52-0.418,3.129-1.254,4.825
		c-0.836,1.697-2.621,3.457-5.356,5.28l12.765,24.997C448.638,116.105,449.372,114.346,450.132,111.838z M426.807,97.706
		c-0.305-0.685-0.532-1.152-0.685-1.406c-1.063,0.812-1.988,1.546-2.772,2.204c-0.786,0.658-1.444,1.355-1.976,2.089
		c-0.532,0.735-0.925,1.546-1.178,2.432c-0.254,0.887-0.38,1.938-0.38,3.153c0,0.911,0.177,2.115,0.531,3.608
		c0.354,1.495,0.848,3.077,1.482,4.749c0.632,1.672,1.392,3.343,2.279,5.015c0.885,1.672,1.848,3.18,2.887,4.521
		c1.038,1.343,2.152,2.444,3.343,3.306s2.394,1.291,3.609,1.291c1.368,0,2.596-0.315,3.686-0.949
		c1.088-0.633,2.266-1.456,3.532-2.47c-0.507-0.709-0.899-1.304-1.178-1.785c-0.278-0.48-0.545-1-0.798-1.558l-11.396-22.11
		C427.439,99.087,427.11,98.39,426.807,97.706z M440.482,79.736c-0.203-0.81-0.507-1.544-0.912-2.203
		c-0.405-0.657-0.925-1.189-1.557-1.596c-0.635-0.404-1.406-0.607-2.317-0.607c-0.152,0-0.494,0.026-1.026,0.076
		c-0.531,0.051-1.09,0.24-1.671,0.569c-0.583,0.33-1.103,0.862-1.558,1.596c-0.456,0.734-0.685,1.761-0.685,3.077
		c0,0.76,0.114,1.584,0.342,2.47c0.229,0.887,0.532,1.798,0.912,2.734c0.38,0.938,0.81,1.875,1.292,2.812
		c0.48,0.938,0.949,1.786,1.405,2.546c0.506-0.354,1.113-0.785,1.823-1.292c0.709-0.506,1.38-1.127,2.014-1.861
		c0.633-0.734,1.165-1.583,1.596-2.546c0.43-0.961,0.646-2.076,0.646-3.343C440.786,81.358,440.685,80.548,440.482,79.736z"/>
	<path fill="#FFFFFF" d="M493.515,128.516v1.063h-24.997v-1.063h6.99v-51.97h-6.99v-1.064h6.99c2.583,0,5.167-0.038,7.75-0.113
		c2.583-0.076,5.167-0.114,7.75-0.114c2.279,0,4.735,0.189,7.37,0.569c2.633,0.38,5.064,1.09,7.294,2.128
		c2.229,1.039,4.09,2.482,5.584,4.331c1.494,1.85,2.242,4.243,2.242,7.18c0,1.976-0.482,3.837-1.444,5.585
		c-0.963,1.747-2.431,3.267-4.406,4.559c-1.976,1.291-4.458,2.317-7.446,3.077c-2.989,0.76-6.509,1.14-10.562,1.14h-3.114v24.693
		H493.515z M488.88,102.759c4.305,0,7.42-0.975,9.346-2.926c1.925-1.949,2.888-5.254,2.888-9.915c0-4.407-0.836-7.775-2.508-10.105
		c-1.671-2.329-4.711-3.495-9.117-3.495c-0.558,0-1.09,0.026-1.596,0.076c-0.507,0.051-0.963,0.103-1.367,0.152v26.213H488.88z"/>
	<path fill="#FFFFFF" d="M532.265,74.798v53.718h5.09v1.063h-19.45v-1.063h5.091V75.861h-5.091v-1.063H532.265z"/>
	<path fill="#FFFFFF" d="M574.546,130.263c-1.343,0.202-2.597,0.304-3.761,0.304c-2.584,0-4.496-0.455-5.736-1.367
		c-1.242-0.912-2.014-2.178-2.317-3.799h-0.152c-0.811,2.026-1.926,3.394-3.343,4.103c-1.419,0.709-3.471,1.063-6.154,1.063
		c-1.216,0-2.458-0.127-3.724-0.38c-1.267-0.254-2.431-0.657-3.495-1.215c-1.063-0.558-1.925-1.33-2.583-2.317
		c-0.659-0.988-0.987-2.19-0.987-3.609c0-1.469,0.291-2.697,0.873-3.685c0.582-0.988,1.342-1.824,2.28-2.508
		c0.937-0.684,2-1.24,3.19-1.672c1.189-0.43,2.419-0.848,3.686-1.253c2.076-0.608,3.761-1.127,5.053-1.558
		c1.291-0.43,2.291-0.886,3.001-1.368c0.709-0.48,1.202-1.025,1.481-1.634c0.277-0.607,0.418-1.393,0.418-2.354v-4.635
		c0-1.368-0.33-2.608-0.988-3.724c-0.658-1.113-1.899-1.671-3.723-1.671c-1.166,0-2.179,0.266-3.039,0.798
		c-0.862,0.531-1.292,1.507-1.292,2.925c0,0.152,0.025,0.418,0.076,0.798c0.05,0.38,0.101,0.798,0.152,1.254
		c0.05,0.455,0.101,0.887,0.151,1.291c0.05,0.406,0.076,0.684,0.076,0.836c0,0.76-0.178,1.355-0.531,1.785
		c-0.355,0.432-0.773,0.748-1.254,0.95c-0.482,0.203-0.988,0.317-1.52,0.342c-0.532,0.026-0.977,0.038-1.33,0.038
		c-0.507,0-1.025-0.038-1.558-0.114c-0.531-0.076-1.001-0.253-1.405-0.531c-0.406-0.278-0.748-0.671-1.025-1.178
		c-0.279-0.506-0.418-1.189-0.418-2.052c0-1.316,0.366-2.494,1.102-3.533c0.733-1.037,1.709-1.899,2.925-2.583
		s2.596-1.203,4.141-1.558c1.545-0.354,3.153-0.532,4.825-0.532c1.924,0,3.734,0.152,5.433,0.456
		c1.696,0.304,3.165,0.862,4.406,1.672c1.241,0.811,2.229,1.912,2.964,3.305c0.733,1.394,1.102,3.153,1.102,5.281v18.843
		c0,0.963,0.139,1.812,0.418,2.545c0.277,0.735,0.975,1.102,2.089,1.102c0.658,0,1.203-0.126,1.634-0.38
		c0.43-0.253,0.848-0.607,1.254-1.063l0.684,0.684C576.913,129.427,575.888,130.06,574.546,130.263z M562.123,110.736
		c-0.102,0.304-0.292,0.596-0.569,0.874c-0.279,0.278-0.773,0.596-1.481,0.949c-0.963,0.456-1.926,0.9-2.888,1.33
		c-0.963,0.431-1.823,0.976-2.583,1.633c-0.76,0.659-1.381,1.47-1.861,2.432c-0.482,0.963-0.723,2.203-0.723,3.724
		c0,0.607,0.038,1.317,0.114,2.127c0.076,0.811,0.278,1.596,0.608,2.355c0.328,0.76,0.822,1.405,1.481,1.938
		c0.657,0.531,1.569,0.798,2.735,0.798c0.657,0,1.303-0.152,1.938-0.456c0.633-0.304,1.202-0.771,1.709-1.405
		c0.506-0.633,0.912-1.469,1.216-2.508c0.304-1.037,0.456-2.291,0.456-3.761v-10.029H562.123z"/>
	<path fill="#FFFFFF" d="M582.409,107.394c0.81-2.025,2.014-3.888,3.609-5.585c1.595-1.696,3.545-3.102,5.85-4.217
		c2.305-1.113,4.977-1.672,8.017-1.672c1.924,0,3.672,0.203,5.242,0.608c1.569,0.406,2.925,0.976,4.064,1.709
		c1.14,0.735,2.025,1.622,2.66,2.659c0.633,1.039,0.949,2.192,0.949,3.457c0,1.672-0.431,2.85-1.292,3.533
		c-0.861,0.685-2.077,1.026-3.646,1.026c-1.166,0-2.241-0.215-3.229-0.646c-0.987-0.43-1.481-1.329-1.481-2.697
		c0-0.201,0.063-0.557,0.19-1.063c0.125-0.506,0.253-1.037,0.38-1.596c0.126-0.557,0.253-1.089,0.38-1.596
		c0.126-0.506,0.189-0.86,0.189-1.063c0-1.013-0.443-1.811-1.329-2.394c-0.887-0.581-1.989-0.873-3.306-0.873
		c-1.823,0-3.267,0.431-4.331,1.291c-1.063,0.862-1.887,2.014-2.469,3.457c-0.583,1.444-0.963,3.115-1.14,5.015
		c-0.179,1.899-0.267,3.913-0.267,6.041c0,1.975,0.076,3.95,0.229,5.926s0.557,3.774,1.216,5.395
		c0.657,1.622,1.62,2.938,2.887,3.951c1.266,1.014,2.988,1.52,5.167,1.52c2.076,0,3.824-0.367,5.242-1.102
		c1.418-0.733,2.558-1.596,3.419-2.583c0.861-0.988,1.507-1.976,1.938-2.964c0.43-0.987,0.696-1.709,0.798-2.165l1.064,0.38
		c-0.255,0.912-0.646,1.912-1.178,3.001c-0.532,1.09-1.305,2.103-2.317,3.039c-1.015,0.938-2.317,1.736-3.913,2.394
		s-3.609,0.987-6.041,0.987c-0.658,0-1.583-0.063-2.772-0.189c-1.191-0.127-2.482-0.406-3.875-0.836
		c-1.395-0.43-2.8-1.025-4.217-1.785c-1.419-0.76-2.724-1.786-3.913-3.077c-1.191-1.292-2.153-2.874-2.888-4.749
		c-0.734-1.873-1.102-4.103-1.102-6.687C581.193,111.37,581.599,109.42,582.409,107.394z"/>
	<path fill="#FFFFFF" d="M627.995,113.928c0,1.823,0.076,3.66,0.229,5.508c0.152,1.85,0.557,3.521,1.216,5.015
		c0.657,1.495,1.62,2.724,2.887,3.686c1.266,0.963,3.039,1.443,5.318,1.443c2.025,0,3.735-0.38,5.129-1.14
		c1.393-0.76,2.532-1.634,3.419-2.621c0.886-0.988,1.545-1.963,1.976-2.926c0.43-0.961,0.671-1.671,0.722-2.127l1.064,0.38
		c-0.255,0.963-0.685,1.988-1.292,3.077c-0.608,1.09-1.443,2.103-2.508,3.039c-1.063,0.938-2.381,1.723-3.95,2.355
		c-1.571,0.633-3.471,0.949-5.699,0.949c-2.634,0-5.09-0.393-7.369-1.178c-2.28-0.784-4.269-1.924-5.965-3.419
		c-1.697-1.493-3.027-3.316-3.989-5.47c-0.963-2.152-1.443-4.598-1.443-7.332c0-2.178,0.456-4.305,1.368-6.383
		c0.911-2.076,2.165-3.913,3.761-5.509c1.596-1.595,3.469-2.887,5.622-3.875c2.152-0.987,4.47-1.481,6.952-1.481
		c1.772,0,3.545,0.279,5.318,0.836c1.772,0.559,3.368,1.419,4.787,2.583c1.417,1.166,2.583,2.673,3.495,4.521
		c0.912,1.85,1.367,4.064,1.367,6.647h-22.414V113.928z M640.152,104.354c0-0.557-0.026-1.24-0.076-2.051
		c-0.051-0.81-0.228-1.621-0.531-2.432c-0.305-0.81-0.798-1.493-1.482-2.052c-0.684-0.557-1.633-0.835-2.849-0.835
		c-1.723,0-3.053,0.405-3.989,1.215c-0.938,0.812-1.634,1.837-2.089,3.077c-0.456,1.242-0.748,2.584-0.874,4.027
		c-0.127,1.443-0.216,2.824-0.267,4.141h12.157V104.354z"/>
</g>
<rect x="366.563" y="145.515" fill="#FFFFFF" width="140.957" height="2"/>
<g>
	<path fill="#3C9BC2" d="M202.677,127.384c0,43.963-35.64,79.602-79.604,79.602S43.47,171.347,43.47,127.384
		c0-43.965,35.64-79.603,79.604-79.603S202.677,83.419,202.677,127.384"/>
</g>
<g>
	<path fill="#FFFFFF" d="M125.01,180.241l-1.729-2.151c-2.261-2.812-13.46-17.168-12.012-23.571
		c1.103-4.873,4.24-10.476,10.116-18.025c-2.879-3.222-6.072-6.543-9.174-9.769c-11.527-11.991-23.447-24.391-23.439-35.679
		c0.015-16.602,17.744-34.83,33.877-34.83c15.759,0.022,34.234,17.486,34.716,32.783c0.358,11.335-11.219,24.768-22.415,37.758
		c-2.741,3.18-5.562,6.454-8.131,9.614c6.089,7.164,9.321,12.638,10.422,17.605c1.457,6.585-8.602,21.16-10.632,24.016
		L125.01,180.241z M124.173,139.709c-3.568,4.638-7.68,10.639-8.831,15.731c-0.6,2.649,4.187,10.838,9.46,17.81
		c4.298-6.462,9.055-15.246,8.363-18.371C132.261,150.799,129.389,145.942,124.173,139.709z M122.678,60.39
		c-13.896,0-29.718,16.333-29.729,30.66c-0.008,9.604,11.319,21.387,22.273,32.781c2.957,3.076,5.998,6.239,8.795,9.344l0.013-0.017
		l0.012,0.014c2.478-3.027,5.147-6.126,7.747-9.141c10.674-12.385,21.712-25.19,21.405-34.9
		C152.778,75.989,136.237,60.409,122.678,60.39z"/>
</g>
<g>
	<path fill="#FFFFFF" d="M125.394,198.553L125.394,198.553h-0.031c-14.773-0.022-32.134-16.435-32.588-30.807
		c-0.336-10.66,10.516-23.25,21.01-35.426c2.539-2.945,5.152-5.978,7.535-8.906c-5.666-6.68-8.68-11.796-9.709-16.447
		c-1.377-6.217,8.063-19.9,9.97-22.58l1.6-2.249l1.729,2.151c2.122,2.641,12.636,16.119,11.267,22.172
		c-1.033,4.562-3.956,9.795-9.422,16.831c2.672,2.986,5.631,6.064,8.505,9.055c10.806,11.239,21.979,22.862,21.97,33.479
		C157.214,181.425,140.553,198.553,125.394,198.553z M124.097,126.613c-2.291,2.795-4.754,5.652-7.15,8.433
		c-9.973,11.57-20.284,23.534-20,32.567c0.388,12.237,15.793,26.745,28.422,26.765l0.024,2.088v-2.088
		c12.655,0.001,27.648-15.479,27.661-28.556c0.007-8.934-10.573-19.939-20.805-30.583c-2.73-2.84-5.537-5.76-8.127-8.629
		l-0.014,0.018L124.097,126.613z M123.388,89.133c-3.98,6.009-8.336,14.069-7.701,16.931c0.834,3.769,3.48,8.257,8.278,14.01
		c3.307-4.309,7.075-9.842,8.138-14.533C132.651,103.114,128.259,95.596,123.388,89.133z"/>
</g>
<g>
	<path fill="#FFFFFF" d="M123.073,201.581c-40.914,0-74.199-33.285-74.199-74.197c0-40.914,33.285-74.201,74.199-74.201
		s74.201,33.287,74.201,74.201C197.274,168.296,163.987,201.581,123.073,201.581z M123.073,57.357
		c-38.611,0-70.025,31.414-70.025,70.026c0,38.61,31.414,70.022,70.025,70.022c38.613,0,70.026-31.412,70.026-70.022
		C193.1,88.771,161.687,57.357,123.073,57.357z"/>
</g>
</svg>
