<svg width="61" height="38" viewBox="0 0 61 38" fill="none" xmlns="http://www.w3.org/2000/svg">
<path d="M32.3508 5.37305C32.3508 5.37305 30.1773 10.3423 29.6251 11.488C28.6567 13.4972 27.5449 14.2834 24.9266 14.6765C23.7005 14.8606 1.90088 15.8994 1.90088 15.8994L2.12694 33.6195L32.3079 33.6149L32.3508 5.37305Z" fill="#399AC2"/>
<path d="M32.8533 8.69141L36.117 9.04074L36.1887 33.6316H32.8174L32.8533 8.69141Z" fill="#399AC2"/>
<path d="M41.6401 9.39062L44.366 9.47789L44.8322 33.6269L41.6761 33.632L41.6401 9.39062Z" fill="#399AC2"/>
<path d="M36.8343 8.29883L40.8512 8.69193L40.9946 33.6321L36.7983 33.6267L36.8343 8.29883Z" fill="#399AC2"/>
<path d="M45.0112 6.28973L45.1548 6.24609L45.5144 15.3134L58.8916 16.3795L59.6441 33.6323H45.5136L45.0112 6.28973Z" fill="#399AC2"/>
<path d="M32.7812 7.51287C33.678 6.24616 35.9732 4.89218 36.7623 4.63011C37.5515 4.36804 39.7393 4.36804 40.8511 4.58648C41.9629 4.80491 42.7521 5.24165 43.0031 6.11526C43.2541 6.98886 42.9313 8.16804 42.8237 8.69218L41.6401 8.64855V8.08077L36.1885 7.60027L36.1527 8.47388L32.8172 8.08077L32.7812 7.51287Z" fill="#399AC2"/>
</svg>
