<svg width="61" height="38" viewBox="0 0 61 38" fill="none" xmlns="http://www.w3.org/2000/svg">
<path d="M32.3504 5.37305C32.3504 5.37305 30.1768 10.3423 29.6246 11.488C28.6562 13.4972 27.5444 14.2834 24.9262 14.6765C23.7 14.8606 1.90039 15.8994 1.90039 15.8994L2.12645 33.6195L32.3074 33.6149L32.3504 5.37305Z" fill="#26476C"/>
<path d="M32.8533 8.69141L36.117 9.04074L36.1887 33.6316H32.8174L32.8533 8.69141Z" fill="#26476C"/>
<path d="M41.6396 9.39062L44.3655 9.47789L44.8317 33.6269L41.6756 33.632L41.6396 9.39062Z" fill="#26476C"/>
<path d="M36.8338 8.29883L40.8507 8.69193L40.9941 33.6321L36.7979 33.6267L36.8338 8.29883Z" fill="#26476C"/>
<path d="M45.0107 6.28973L45.1543 6.24609L45.5139 15.3134L58.8911 16.3795L59.6436 33.6323H45.5131L45.0107 6.28973Z" fill="#26476C"/>
<path d="M32.7803 7.51287C33.677 6.24616 35.9722 4.89218 36.7614 4.63011C37.5505 4.36804 39.7384 4.36804 40.8502 4.58648C41.962 4.80491 42.7511 5.24165 43.0021 6.11526C43.2531 6.98886 42.9303 8.16804 42.8227 8.69218L41.6392 8.64855V8.08077L36.1876 7.60027L36.1517 8.47388L32.8162 8.08077L32.7803 7.51287Z" fill="#26476C"/>
</svg>
