<svg width="61" height="38" viewBox="0 0 61 38" fill="none" xmlns="http://www.w3.org/2000/svg">
<path d="M32.3508 5.37268C32.3508 5.37268 30.1773 10.3419 29.6251 11.4877C28.6567 13.4968 27.5449 14.283 24.9266 14.6761C23.7005 14.8602 1.90088 15.8991 1.90088 15.8991L2.12694 33.6191L32.3079 33.6145L32.3508 5.37268Z" fill="#399AC2" fill-opacity="0.6"/>
<path d="M32.8533 8.69205L36.117 9.04139L36.1887 33.6322H32.8174L32.8533 8.69205Z" fill="#399AC2" fill-opacity="0.6"/>
<path d="M41.6401 9.39084L44.366 9.47811L44.8322 33.6271L41.6761 33.6322L41.6401 9.39084Z" fill="#399AC2" fill-opacity="0.6"/>
<path d="M36.8343 8.29892L40.8512 8.69202L40.9946 33.6322L36.7983 33.6268L36.8343 8.29892Z" fill="#399AC2" fill-opacity="0.6"/>
<path d="M45.0112 6.28964L45.1548 6.246L45.5144 15.3133L58.8916 16.3794L59.6441 33.6322H45.5136L45.0112 6.28964Z" fill="#399AC2" fill-opacity="0.6"/>
<path d="M32.7812 7.5126C33.678 6.24589 35.9732 4.89191 36.7623 4.62984C37.5515 4.36777 39.7393 4.36777 40.8511 4.5862C41.9629 4.80464 42.7521 5.24138 43.0031 6.11498C43.2541 6.98859 42.9313 8.16777 42.8237 8.69191L41.6401 8.64827V8.0805L36.1885 7.6L36.1527 8.4736L32.8172 8.0805L32.7812 7.5126Z" fill="#399AC2" fill-opacity="0.6"/>
</svg>
